<svg width="15" height="12" viewBox="0 0 15 12" fill="none" xmlns="http://www.w3.org/2000/svg">
<path d="M6.43662 1.52407H8.46871C9.40906 1.52492 10.2255 2.17197 10.4412 3.08726C10.4593 3.16357 10.5273 3.2175 10.6058 3.21768H13.7197C13.7646 3.21785 13.8078 3.20012 13.8396 3.16843C13.8714 3.13673 13.8893 3.09367 13.8893 3.04876V1.35452C13.8893 0.995172 13.7465 0.65055 13.4923 0.39651C13.2382 0.142471 12.8935 -0.000164621 12.5341 1.42585e-07H2.37119C2.01184 -0.000164621 1.66716 0.142471 1.413 0.39651C1.15885 0.65055 1.01605 0.995172 1.01605 1.35452V3.04876C1.01605 3.09367 1.03393 3.13673 1.06575 3.16843C1.09756 3.20012 1.14069 3.21785 1.1856 3.21768H4.29957C4.37815 3.21796 4.44646 3.16383 4.46415 3.08726C4.6798 2.17197 5.49627 1.52492 6.43662 1.52407Z" fill="black"/>
<path d="M0.677571 4.23434C0.497817 4.23418 0.325379 4.30551 0.198274 4.43262C0.071169 4.55972 -0.000164702 4.73216 2.85562e-07 4.91192V8.4687C-2.66663e-07 8.79072 0.226651 9.06826 0.542181 9.1326C0.620912 9.1488 0.677452 9.21805 0.677571 9.29842V10.6703C0.677571 11.0445 0.98093 11.3479 1.35514 11.3479C1.72935 11.3479 2.03271 11.0445 2.03271 10.6703V9.31581C2.03255 9.27091 2.05027 9.22778 2.08197 9.19596C2.11367 9.16415 2.15673 9.14627 2.20164 9.14627H12.7037C12.7486 9.14627 12.7916 9.16415 12.8233 9.19596C12.855 9.22778 12.8728 9.27091 12.8726 9.31581V10.6703C12.8726 11.0445 13.176 11.3479 13.5502 11.3479C13.9244 11.3479 14.2277 11.0445 14.2277 10.6703V9.29842C14.2279 9.21805 14.2844 9.1488 14.3631 9.1326C14.6787 9.06826 14.9053 8.79072 14.9053 8.4687V4.91192C14.9055 4.73216 14.8341 4.55972 14.707 4.43262C14.5799 4.30551 14.4075 4.23418 14.2277 4.23434H0.677571Z" fill="black"/>
</svg>
