<svg width="18" height="18" viewBox="0 0 18 18" fill="none" xmlns="http://www.w3.org/2000/svg">
<path d="M4.96843 3.194C5.36043 3.194 5.67821 2.87622 5.67821 2.48422V0.709777C5.67821 0.317778 5.36043 0 4.96843 0C4.57643 0 4.25865 0.317778 4.25865 0.709777V2.48422C4.25865 2.87622 4.57643 3.194 4.96843 3.194Z" fill="black"/>
<path d="M3.194 4.96838C3.194 4.57638 2.87622 4.25861 2.48422 4.25861H0.709777C0.317778 4.25861 0 4.57638 0 4.96838C0 5.36038 0.317778 5.67816 0.709777 5.67816H2.48422C2.87622 5.67816 3.194 5.36038 3.194 4.96838Z" fill="black"/>
<path d="M2.48422 11.3565H0.709777C0.317778 11.3565 0 11.6743 0 12.0663C0 12.4583 0.317778 12.7761 0.709777 12.7761H2.48422C2.87622 12.7761 3.194 12.4583 3.194 12.0663C3.194 11.6743 2.87622 11.3565 2.48422 11.3565Z" fill="black"/>
<path d="M12.0662 0C11.6742 0 11.3564 0.317778 11.3564 0.709777V2.48422C11.3564 2.87622 11.6742 3.194 12.0662 3.194C12.4582 3.194 12.776 2.87622 12.776 2.48422V0.709777C12.776 0.317778 12.4582 0 12.0662 0Z" fill="black"/>
<path d="M4.96843 13.8407C4.57643 13.8407 4.25865 14.1585 4.25865 14.5505V16.3249C4.25865 16.7169 4.57643 17.0347 4.96843 17.0347C5.36043 17.0347 5.67821 16.7169 5.67821 16.3249V14.5505C5.67821 14.1585 5.36043 13.8407 4.96843 13.8407Z" fill="black"/>
<path d="M12.0662 13.8407C11.6742 13.8407 11.3564 14.1585 11.3564 14.5505V16.3249C11.3564 16.7169 11.6742 17.0347 12.0662 17.0347C12.4582 17.0347 12.776 16.7169 12.776 16.3249V14.5505C12.776 14.1585 12.4582 13.8407 12.0662 13.8407Z" fill="black"/>
<path d="M14.5504 5.67816H16.3249C16.7169 5.67816 17.0347 5.36038 17.0347 4.96838C17.0347 4.57638 16.7169 4.25861 16.3249 4.25861H14.5504C14.1584 4.25861 13.8407 4.57638 13.8407 4.96838C13.8407 5.36038 14.1584 5.67816 14.5504 5.67816Z" fill="black"/>
<path d="M16.3249 11.3565H14.5504C14.1584 11.3565 13.8407 11.6743 13.8407 12.0663C13.8407 12.4583 14.1584 12.7761 14.5504 12.7761H16.3249C16.7169 12.7761 17.0347 12.4583 17.0347 12.0663C17.0347 11.6743 16.7169 11.3565 16.3249 11.3565Z" fill="black"/>
<path fill-rule="evenodd" clip-rule="evenodd" d="M12.0662 4.25861C12.4582 4.25861 12.776 4.57638 12.776 4.96838V12.0662C12.776 12.4581 12.4582 12.7759 12.0662 12.7759H4.96843C4.57643 12.7759 4.25865 12.4581 4.25865 12.0662V4.96838C4.25865 4.57638 4.57643 4.25861 4.96843 4.25861H12.0662ZM11.0015 11.3563C11.1975 11.3563 11.3564 11.1974 11.3564 11.0014V6.03295C11.3564 5.83695 11.1975 5.67806 11.0015 5.67806H6.03305C5.83705 5.67806 5.67816 5.83695 5.67816 6.03295V11.0014C5.67816 11.1974 5.83705 11.3563 6.03305 11.3563H11.0015Z" fill="black"/>
</svg>
