<svg width="18" height="18" viewBox="0 0 18 18" fill="none" xmlns="http://www.w3.org/2000/svg">
<path fill-rule="evenodd" clip-rule="evenodd" d="M16.3257 9.93455C16.5221 9.93597 16.7092 10.0181 16.8431 10.1617C16.9775 10.3024 17.0472 10.4927 17.0355 10.6869C16.8222 14.2508 13.87 17.0319 10.2997 17.0323H6.73662C3.16635 17.0319 0.214124 14.2508 0.000839531 10.6869C-0.00851158 10.4932 0.0605668 10.3039 0.192479 10.1617C0.325478 10.0164 0.513618 9.93388 0.710616 9.93455H3.27859C3.43508 9.93602 3.57407 9.83481 3.6207 9.68542C3.80606 9.09599 4.3514 8.69417 4.96928 8.69173H8.52171C9.13959 8.69417 9.68493 9.09599 9.87029 9.68542C9.91653 9.83356 10.0537 9.93446 10.2088 9.93455H14.0182C14.2142 9.93455 14.3731 9.77566 14.3731 9.57966V2.12701C14.3739 1.84651 14.2094 1.59185 13.9534 1.47721C13.6974 1.36256 13.3979 1.40943 13.1892 1.5968L12.8982 1.88781C12.8035 1.98318 12.7708 2.12386 12.8137 2.25122C13.0612 2.98221 12.8734 3.7903 12.329 4.33725L12.187 4.48276C11.9098 4.75984 11.4605 4.75984 11.1834 4.48276L9.30601 2.60469C9.02893 2.32752 9.02893 1.87823 9.30601 1.60106L9.45152 1.45556C10.005 0.926854 10.804 0.744744 11.5319 0.981426C11.6583 1.02159 11.7965 0.987918 11.8903 0.894124L12.2189 0.565497C12.8399 -0.00834124 13.7416 -0.160376 14.5165 0.178111C15.2913 0.516599 15.7924 1.28147 15.7934 2.12701V9.57966C15.7934 9.77566 15.9523 9.93455 16.1483 9.93455H16.3257ZM8.16333 14.3707C8.35933 14.3707 8.51822 14.2118 8.51822 14.0158V10.4669C8.51822 10.2709 8.35933 10.112 8.16333 10.112H5.32422C5.12822 10.112 4.96933 10.2709 4.96933 10.4669V14.0158C4.96933 14.2118 5.12822 14.3707 5.32422 14.3707H8.16333Z" fill="black"/>
<path d="M6.38892 4.31883C6.49139 4.31973 6.59285 4.29842 6.68631 4.25637L7.97527 3.66158C8.2059 3.55571 8.36253 3.33484 8.38616 3.08218C8.40979 2.82951 8.29682 2.58343 8.08982 2.43663C7.88282 2.28984 7.61323 2.26463 7.3826 2.37049L6.09152 2.96458C5.78884 3.10424 5.62414 3.43571 5.69564 3.7613C5.76714 4.08688 6.05557 4.31884 6.38892 4.31883Z" fill="black"/>
<path d="M10.0243 8.16663C10.3848 8.32039 10.8016 8.15295 10.9556 7.79258L11.5135 6.48659C11.6573 6.12836 11.4885 5.72082 11.1335 5.56927C10.7784 5.41771 10.3673 5.57771 10.2082 5.92942L9.65384 7.23754C9.50107 7.59643 9.66653 8.01135 10.0243 8.16663Z" fill="black"/>
<path d="M7.44361 6.43978C7.7194 6.71824 8.16869 6.72046 8.44723 6.44474L9.45653 5.4468C9.72754 5.16989 9.7264 4.72682 9.45399 4.45131C9.18157 4.17579 8.73854 4.16964 8.45859 4.4375L7.44929 5.43615C7.17063 5.71175 7.16808 6.16104 7.44361 6.43978Z" fill="black"/>
</svg>
